P2
# CREATOR: GIMP PNM Filter Version 1.1
50 50
255
54
50
28
10
5
5
5
5
5
5
5
5
5
5
5
5
5
6
6
6
13
46
118
166
219
253
255
255
255
255
255
255
255
255
255
255
255
255
255
255
255
255
255
255
255
255
255
255
255
255
47
43
26
8
5
5
5
5
5
5
5
5
5
5
5
5
5
5
5
5
10
35
96
142
196
243
255
255
255
255
255
255
255
255
255
255
255
255
255
255
255
255
255
255
255
255
255
255
255
255
43
38
25
7
5
5
5
5
5
5
5
5
5
5
5
5
5
5
5
5
6
24
80
125
178
237
255
255
255
255
255
255
255
255
255
255
255
255
255
255
255
255
255
255
255
255
255
255
255
255
44
37
25
10
5
5
5
5
5
5
5
5
5
5
5
5
5
5
5
5
7
23
66
109
159
229
255
255
255
255
255
255
255
255
255
255
255
255
255
255
255
255
255
255
255
255
255
255
255
255
48
38
28
12
5
5
5
5
5
5
5
5
5
5
5
5
5
5
5
5
7
19
57
99
140
217
255
255
255
255
255
255
255
255
255
255
255
255
255
255
255
255
255
255
255
255
255
255
255
255
51
41
28
13
5
5
5
5
5
5
5
5
5
5
5
5
5
5
5
5
6
17
49
94
134
194
243
255
255
255
255
255
255
255
255
255
255
255
255
255
255
255
255
255
255
255
255
255
255
255
54
44
31
13
5
5
5
5
5
5
5
5
5
5
5
5
5
5
5
5
6
14
40
85
123
177
235
255
255
255
255
255
255
255
255
255
255
255
255
255
255
255
255
255
255
255
255
255
255
255
56
47
33
17
5
5
5
5
5
5
5
5
5
5
5
5
5
5
5
5
6
12
33
77
109
155
222
255
255
255
255
255
255
255
255
255
255
255
255
255
255
255
255
255
255
255
255
255
255
255
62
50
36
20
6
5
5
5
5
5
5
5
5
5
5
5
5
5
5
5
5
11
26
67
102
139
211
255
255
255
255
255
255
255
255
255
255
255
255
255
255
255
255
255
255
255
255
255
255
255
64
53
41
22
9
5
5
5
5
5
5
5
5
5
5
5
5
5
5
5
5
9
24
62
97
127
194
253
255
255
255
255
255
255
255
255
255
255
255
255
255
255
255
255
255
255
255
255
255
255
64
55
45
25
11
5
5
5
5
5
5
5
5
5
5
5
5
5
5
5
5
8
21
54
89
121
183
243
255
255
255
255
255
255
255
255
255
255
255
255
255
255
255
255
255
255
255
255
255
255
66
56
49
29
12
5
5
5
5
5
5
5
5
5
5
5
5
5
5
5
5
7
19
46
85
115
167
230
253
255
255
255
255
255
255
255
255
255
255
255
255
255
255
255
255
255
255
255
255
255
72
57
52
33
13
5
5
5
5
5
5
5
5
5
5
5
5
5
5
5
5
7
15
38
76
114
159
211
243
255
255
255
255
255
255
255
255
255
255
255
255
255
255
255
255
255
255
255
255
255
75
57
55
36
15
6
5
5
5
5
5
5
5
5
5
5
5
5
5
5
5
6
14
30
64
105
142
195
237
255
255
255
255
255
255
255
255
255
255
255
255
255
255
255
255
255
255
255
255
255
86
64
56
41
18
8
5
5
5
5
5
5
5
5
5
5
5
5
5
5
5
6
11
24
55
96
128
176
231
255
255
255
255
255
255
255
255
255
255
255
255
255
255
255
255
255
255
255
255
255
98
67
57
46
24
11
5
5
5
5
5
5
5
5
5
5
5
5
5
5
5
5
10
20
46
87
121
167
226
255
255
255
255
255
255
255
255
255
255
255
255
255
255
255
255
255
255
255
255
255
110
71
57
50
29
12
5
5
5
5
5
5
5
5
5
5
5
5
5
5
5
5
8
17
42
78
114
157
207
243
255
255
255
255
255
255
255
255
255
255
255
255
255
255
255
255
255
255
255
255
119
76
58
53
34
13
6
5
5
5
5
5
5
5
5
5
5
5
5
5
5
5
7
15
35
68
105
151
202
237
255
255
255
255
255
255
255
255
255
255
255
255
255
255
255
255
255
255
255
255
140
84
58
55
38
15
7
5
5
5
5
5
5
5
5
5
5
5
5
5
5
5
7
13
30
61
97
145
187
224
253
255
255
255
255
255
255
255
255
255
255
255
255
255
255
255
255
255
255
255
147
92
64
56
41
17
7
5
5
5
5
5
5
5
5
5
5
5
5
5
5
5
5
11
25
50
90
138
176
206
243
255
255
255
255
255
255
255
255
255
255
255
255
255
255
255
255
255
255
255
159
101
67
57
44
20
8
5
5
5
5
5
5
5
5
5
5
5
5
5
5
5
5
10
22
45
84
132
162
192
237
255
255
255
255
255
255
255
255
255
255
255
255
255
255
255
255
255
255
255
172
114
74
58
47
24
12
5
5
5
5
5
5
5
5
5
5
5
5
5
5
5
5
9
18
37
76
118
155
189
231
255
255
255
255
255
255
255
255
255
255
255
255
255
255
255
255
255
255
255
183
126
83
62
50
27
14
5
5
5
5
5
5
5
5
5
5
5
5
5
5
5
5
7
16
32
64
109
146
175
218
253
255
255
255
255
255
255
255
255
255
255
255
255
255
255
255
255
255
255
180
135
90
64
53
31
16
6
5
5
5
5
5
5
5
5
5
5
5
5
5
5
5
7
15
28
55
96
138
168
202
243
255
255
255
255
255
255
255
255
255
255
255
255
255
255
255
255
255
255
180
136
93
64
55
37
18
7
5
5
5
5
5
5
5
5
5
5
5
5
5
5
5
6
12
26
49
87
132
166
192
221
243
255
255
255
255
255
255
255
255
255
255
255
255
255
255
255
255
255
185
140
99
71
60
42
20
7
5
5
5
5
5
5
5
5
5
5
5
5
5
5
5
5
10
22
43
76
116
155
177
206
237
255
255
255
255
255
255
255
255
255
255
255
255
255
255
255
255
255
197
146
105
77
63
45
21
9
5
5
5
5
5
5
5
5
5
5
5
5
5
5
5
5
9
20
37
67
109
146
164
192
231
255
255
255
255
255
255
255
255
255
255
255
255
255
255
255
255
255
206
153
107
79
64
49
28
14
6
5
5
5
5
5
5
5
5
5
5
5
5
5
5
5
7
15
33
59
95
132
156
177
218
253
255
255
255
255
255
255
255
255
255
255
255
255
255
255
255
255
217
161
113
85
66
51
32
16
6
5
5
5
5
5
5
5
5
5
5
5
5
5
5
5
5
12
28
55
86
119
148
168
200
243
255
255
255
255
255
255
255
255
255
255
255
255
255
255
255
255
226
170
122
93
73
56
38
19
8
5
5
5
5
5
5
5
5
5
5
5
5
5
5
5
5
10
23
46
72
106
146
166
197
237
255
255
255
255
255
255
255
255
255
255
255
255
255
255
255
255
235
189
132
95
76
61
44
23
9
5
5
5
5
5
5
5
5
5
5
5
5
5
5
5
5
8
20
42
66
99
139
162
189
231
255
255
255
255
255
255
255
255
255
255
255
255
255
255
255
255
237
200
143
102
80
69
53
28
11
5
5
5
5
5
5
5
5
5
5
5
5
5
5
5
5
7
16
36
59
86
124
149
179
226
255
255
255
255
255
255
255
255
255
255
255
255
255
255
255
255
243
212
156
108
87
74
55
30
15
6
5
5
5
5
5
5
5
5
5
5
5
5
5
5
5
6
13
30
55
77
113
146
172
207
243
255
255
255
255
255
255
255
255
255
255
255
255
255
255
255
249
222
167
118
96
82
58
33
20
7
5
5
5
5
5
5
5
5
5
5
5
5
5
5
5
5
11
23
47
71
103
139
170
202
237
255
255
255
255
255
255
255
255
255
255
255
255
255
255
255
255
237
189
132
98
86
63
42
21
9
5
5
5
5
5
5
5
5
5
5
5
5
5
5
5
5
8
19
40
63
90
125
157
192
231
255
255
255
255
255
255
255
255
255
255
255
255
255
255
255
255
237
198
143
107
94
74
52
26
11
5
5
5
5
5
5
5
5
5
5
5
5
5
5
5
5
6
15
32
52
74
113
148
180
210
243
255
255
255
255
255
255
255
255
255
255
255
255
255
255
255
243
212
159
115
96
77
56
31
15
8
5
5
5
5
5
5
5
5
5
5
5
5
5
5
5
6
12
26
43
66
107
141
166
196
237
255
255
255
255
255
255
255
255
255
255
255
255
255
255
255
249
222
172
127
105
85
61
35
19
10
5
5
5
5
5
5
5
5
5
5
5
5
5
5
5
5
11
20
34
56
97
138
165
192
231
255
255
255
255
255
255
255
255
255
255
255
255
255
255
255
255
237
192
142
111
89
66
40
21
12
6
5
5
5
5
5
5
5
5
5
5
5
5
5
5
5
9
17
28
47
85
132
161
185
226
255
255
255
255
255
255
255
255
255
255
255
255
255
255
255
255
237
202
159
122
95
70
48
26
13
9
5
5
5
5
5
5
5
5
5
5
5
5
5
5
5
7
13
21
38
73
130
156
172
206
243
255
255
255
255
255
255
255
255
255
255
255
255
255
255
255
243
212
171
135
104
78
57
32
19
10
6
5
5
5
5
5
5
5
5
5
5
5
5
5
5
5
11
19
29
58
117
156
170
202
237
255
255
255
255
255
255
255
255
255
255
255
255
255
255
255
249
227
192
152
113
85
61
38
21
12
9
5
5
5
5
5
5
5
5
5
5
5
5
5
5
5
10
15
24
45
95
145
165
187
216
243
255
255
255
255
255
255
255
255
255
255
255
255
255
255
255
243
207
164
129
95
69
48
25
13
10
5
5
5
5
5
5
5
5
5
5
5
5
5
5
5
8
13
18
34
74
128
158
174
202
237
255
255
255
255
255
255
255
255
255
255
255
255
255
255
255
243
217
185
146
106
79
54
28
17
12
8
5
5
5
5
5
5
5
5
5
5
5
5
5
5
6
11
15
26
54
106
146
162
184
216
243
255
255
255
255
255
255
255
255
255
255
255
255
255
255
249
232
201
159
118
86
56
32
21
14
10
7
5
5
5
5
5
5
5
5
5
5
5
5
5
5
9
12
18
38
80
132
160
174
202
237
255
255
255
255
255
255
255
255
255
255
255
255
255
255
255
249
222
183
139
96
62
34
23
16
12
8
5
5
5
5
5
5
5
5
5
5
5
5
5
5
8
11
15
26
54
105
148
162
184
216
243
255
255
255
255
255
255
255
255
255
255
255
255
255
255
249
232
201
158
114
73
45
27
20
14
10
7
5
5
5
5
5
5
5
5
5
5
5
5
5
6
9
12
18
34
72
126
154
174
197
221
243
255
255
255
255
255
255
255
255
255
255
255
255
255
255
249
222
181
132
84
52
31
22
16
12
9
5
5
5
5
5
5
5
5
5
5
5
5
5
5
8
11
15
24
50
101
140
160
177
201
227
249
255
255
255
255
255
255
255
255
255
255
255
255
255
249
232
204
156
105
59
35
25
19
14
10
7
5
5
5
5
5
5
5
5
5
5
5
5
5
7
11
13
18
34
74
121
151
168
182
207
235
253
255
255
255
255
255
255
255
255
255
255
255
255
255
249
227
187
131
78
47
28
20
15
12
9
5
5
5
5
5
5
5
5
5
5
5
5
5
8
11
14
17
27
55
103
133
148
164
188
216
243
255
255
255
255
255
255
255
